<mxfile host="65bd71144e">
    <diagram id="8VVzJUsBeNZMY_F8O16Y" name="Page-1">
        <mxGraphModel dx="1050" dy="611" grid="1" gridSize="10" guides="1" tooltips="1" connect="1" arrows="1" fold="1" page="1" pageScale="1" pageWidth="850" pageHeight="1100" math="0" shadow="0">
            <root>
                <mxCell id="0"/>
                <mxCell id="1" parent="0"/>
                <mxCell id="2" value="" style="rounded=0;whiteSpace=wrap;html=1;movable=0;resizable=0;rotatable=0;deletable=0;editable=0;connectable=0;" vertex="1" parent="1">
                    <mxGeometry x="30" y="120" width="990" height="350" as="geometry"/>
                </mxCell>
                <mxCell id="3" value="&lt;font style=&quot;font-size: 23px;&quot;&gt;Front end assistant&lt;/font&gt;" style="text;html=1;strokeColor=none;fillColor=none;align=center;verticalAlign=middle;whiteSpace=wrap;rounded=0;strokeWidth=12;" vertex="1" parent="1">
                    <mxGeometry x="50" y="140" width="210" height="50" as="geometry"/>
                </mxCell>
                <mxCell id="4" value="" style="ellipse;whiteSpace=wrap;html=1;aspect=fixed;strokeWidth=12;fontSize=23;" vertex="1" parent="1">
                    <mxGeometry x="60" y="190" width="30" height="30" as="geometry"/>
                </mxCell>
                <mxCell id="5" value="" style="ellipse;whiteSpace=wrap;html=1;aspect=fixed;strokeWidth=12;fontSize=23;" vertex="1" parent="1">
                    <mxGeometry x="110" y="190" width="30" height="30" as="geometry"/>
                </mxCell>
                <mxCell id="6" value="" style="ellipse;whiteSpace=wrap;html=1;aspect=fixed;strokeWidth=12;fontSize=23;" vertex="1" parent="1">
                    <mxGeometry x="160" y="190" width="30" height="30" as="geometry"/>
                </mxCell>
                <mxCell id="7" value="" style="ellipse;whiteSpace=wrap;html=1;aspect=fixed;strokeWidth=12;fontSize=23;" vertex="1" parent="1">
                    <mxGeometry x="210" y="190" width="30" height="30" as="geometry"/>
                </mxCell>
                <mxCell id="9" value="show site src" style="rounded=1;whiteSpace=wrap;html=1;strokeWidth=12;fontSize=23;" vertex="1" parent="1">
                    <mxGeometry x="60" y="240" width="170" height="40" as="geometry"/>
                </mxCell>
                <mxCell id="10" value="are you need be a contarbeoter" style="rounded=1;whiteSpace=wrap;html=1;strokeWidth=12;fontSize=23;" vertex="1" parent="1">
                    <mxGeometry x="60" y="300" width="170" height="60" as="geometry"/>
                </mxCell>
                <mxCell id="11" value="&lt;h1&gt;&lt;font style=&quot;font-size: 32px;&quot;&gt;location&lt;/font&gt;&lt;/h1&gt;&lt;p&gt;egypt&lt;/p&gt;&lt;p&gt;turkya&lt;/p&gt;" style="text;html=1;strokeColor=none;fillColor=none;spacing=5;spacingTop=-20;whiteSpace=wrap;overflow=hidden;rounded=0;strokeWidth=12;fontSize=23;" vertex="1" parent="1">
                    <mxGeometry x="300" y="120" width="190" height="340" as="geometry"/>
                </mxCell>
            </root>
        </mxGraphModel>
    </diagram>
</mxfile>